<?xml version="1.0" encoding="UTF-8"?>
<svg version="1.1" xmlns="http://www.w3.org/2000/svg" width="500" height="500">
<path d="M0 0 C27.72 0 55.44 0 84 0 C84 2.64 84 5.28 84 8 C83.37351562 8.08636719 82.74703125 8.17273438 82.1015625 8.26171875 C81.28429687 8.40222656 80.46703125 8.54273437 79.625 8.6875 C78.81289062 8.81511719 78.00078125 8.94273438 77.1640625 9.07421875 C74.85100306 9.80698213 74.85100306 9.80698213 73.88215065 11.94845104 C72.64122213 16.24108988 72.71220569 20.30287483 72.7215271 24.75056458 C72.7157347 25.73897282 72.7099423 26.72738106 72.70397437 27.74574107 C72.68695669 31.06075163 72.68409631 34.37562311 72.68115234 37.69067383 C72.6718554 40.06576886 72.66168708 42.44086062 72.65071106 44.81594849 C72.62621016 50.59784406 72.61080503 56.37971247 72.59939598 62.16164754 C72.58562949 68.89012232 72.56066954 75.61854145 72.53501268 82.3469797 C72.4895556 94.34580332 72.45293631 106.34463697 72.421875 118.34350586 C72.39168502 129.99847168 72.35733269 141.65341298 72.31738281 153.30834961 C72.31492126 154.02690193 72.31245972 154.74545424 72.30992357 155.48578087 C72.29754889 159.09058911 72.28509237 162.69539706 72.27259517 166.30020487 C72.16904361 196.20010261 72.07998225 226.10002935 72 256 C72.99 256 73.98 256 75 256 C74.98952637 255.30551758 74.97905273 254.61103516 74.96826172 253.89550781 C74.92611181 250.68037693 74.90048939 247.4653045 74.875 244.25 C74.85824219 243.15816406 74.84148437 242.06632813 74.82421875 240.94140625 C74.75782494 229.72085164 76.47113217 219.4307246 80.0625 208.8125 C80.36269043 207.91901855 80.66288086 207.02553711 80.97216797 206.10498047 C84.98768158 194.62130492 90.51396472 183.62490251 98 174 C98.66 174 99.32 174 100 174 C100.40025391 173.12601562 100.40025391 173.12601562 100.80859375 172.234375 C111.24929103 152.65378862 137.56735686 139.80977059 157.75 133.1875 C195.03897851 121.95477067 235.61630156 126.65753383 270 144 C270 144.66 270 145.32 270 146 C270.86625 146.185625 270.86625 146.185625 271.75 146.375 C274.02335767 147.00648824 275.9253529 147.88858191 278 149 C278 149.66 278 150.32 278 151 C278.721875 151.2475 279.44375 151.495 280.1875 151.75 C283.27606582 153.12269592 285.51011418 154.72353296 288 157 C288 157.66 288 158.32 288 159 C288.598125 159.268125 289.19625 159.53625 289.8125 159.8125 C291.99847854 160.99917406 293.41332594 162.09599113 295 164 C295 164.66 295 165.32 295 166 C295.66 166 296.32 166 297 166 C296.42008587 169.36937448 295.39650321 170.96552427 292.9375 173.3125 C292.30972656 173.91449219 291.68195313 174.51648438 291.03515625 175.13671875 C288.35215417 177.59313332 285.61929917 179.98599896 282.859375 182.35546875 C281.19983315 183.82325682 279.65641767 185.33851979 278.125 186.9375 C276 189 276 189 274 189 C274 189.66 274 190.32 274 191 C272.390625 192.65625 272.390625 192.65625 270.25 194.5 C269.55390625 195.1084375 268.8578125 195.716875 268.140625 196.34375 C266.13219166 197.89772032 264.36715173 199.08496656 262 200 C261.34 199.67 260.68 199.34 260 199 C260 198.34 260 197.68 260 197 C259.34 197 258.68 197 258 197 C258 196.34 258 195.68 258 195 C257.401875 194.71125 256.80375 194.4225 256.1875 194.125 C254 193 254 193 251 191 C251 190.34 251 189.68 251 189 C250.0409375 188.6596875 250.0409375 188.6596875 249.0625 188.3125 C246.54126168 187.23196929 244.35580074 186.06714021 242 184.6875 C223.97050719 174.52706676 200.15485211 172.48317384 180.0625 177.5625 C171.81921237 180.04786891 163.97515533 183.77904675 157.26171875 189.21875 C155 191 155 191 153 191 C153 191.66 153 192.32 153 193 C152.34 193 151.68 193 151 193 C151 193.66 151 194.32 151 195 C150.34 195 149.68 195 149 195 C149 195.66 149 196.32 149 197 C148.34 197 147.68 197 147 197 C146.72671875 197.58136719 146.4534375 198.16273438 146.171875 198.76171875 C145.02178561 200.95838948 143.71497598 202.81587951 142.25 204.8125 C131.72369673 220.42135657 130.84676478 237.37117485 130 256 C167.29 256 204.58 256 243 256 C243 251.38 243 246.76 243 242 C259.5 242 276 242 293 242 C293.68184976 265.30767476 293.68184976 265.30767476 293.83007812 275.28125 C293.93153608 282.07555164 294.05121285 288.86594193 294.2824707 295.65722656 C294.46787558 301.13656233 294.5689542 306.6117059 294.61291313 312.09393692 C294.64421179 314.17965882 294.70534862 316.26516259 294.79741096 318.34908676 C295.47065967 334.22746953 295.47065967 334.22746953 291.36509323 338.83466339 C287.32822436 342.04379978 282.89824222 344.17219008 278.14155388 346.10498428 C274.922573 347.45028711 271.933028 349.13579094 268.875 350.8125 C256.16327329 356.98014872 242.80190487 360.34786926 229 363 C227.83597656 363.22816406 226.67195312 363.45632813 225.47265625 363.69140625 C206.54957994 366.79106251 186.71241428 365.94770659 168 362 C166.40091797 361.69255859 166.40091797 361.69255859 164.76953125 361.37890625 C147.88478826 357.71029138 132.09567125 349.44770355 118.53125 338.953125 C116.73704743 337.56870944 114.885612 336.25707466 113 335 C113 334.34 113 333.68 113 333 C112.34 333 111.68 333 111 333 C111 332.34 111 331.68 111 331 C110.38125 330.7525 109.7625 330.505 109.125 330.25 C106.64931313 328.79371361 106.04874998 327.62187494 105 325 C104.34 325 103.68 325 103 325 C100 321.53846154 100 321.53846154 100 319 C99.34 319 98.68 319 98 319 C97.66910873 318.22093796 97.33821747 317.44187592 96.99729919 316.63920593 C95.39617277 312.97232474 93.95914921 310.72183283 91 308 C84.52061152 305.82493593 77.14480712 306.58285579 70.41015625 306.70703125 C68.37990828 306.70510842 66.3496596 306.69833966 64.31944275 306.68693542 C58.99037039 306.66996842 53.66385888 306.71862348 48.33520508 306.78112793 C42.89210452 306.83330536 37.44915508 306.82318166 32.00585938 306.81835938 C21.33647064 306.81806028 10.66874966 306.88711203 0 307 C0 304.69 0 302.38 0 300 C1.670625 299.566875 1.670625 299.566875 3.375 299.125 C7.00291092 298.30758671 7.00291092 298.30758671 9 296 C9.30063329 293.83194467 9.30063329 293.83194467 9.24609566 291.28733635 C9.25007775 290.28710312 9.25405985 289.28686989 9.25816262 288.25632656 C9.25233693 287.14934103 9.24651125 286.0423555 9.24050903 284.90182495 C9.24221788 283.73222013 9.24392673 282.5626153 9.24568737 281.35756791 C9.24842069 278.10117774 9.2421374 274.8449452 9.23213124 271.58857369 C9.2235199 268.08073689 9.22641525 264.57290787 9.22793579 261.06506348 C9.22898612 254.98419311 9.22269416 248.90336555 9.21146011 242.82250595 C9.19522799 234.03053578 9.18999946 225.23858637 9.18748413 216.44660284 C9.18310343 202.18330291 9.16978416 187.92002581 9.15087891 173.65673828 C9.13252981 159.79866653 9.11836856 145.94060097 9.10986328 132.08251953 C9.10933783 131.22876424 9.10881239 130.37500895 9.10827102 129.49538229 C9.105661 125.21247922 9.10313357 120.92957611 9.10064721 116.64667296 C9.07990302 81.09776554 9.04451896 45.54888524 9 10 C4.545 9.01 4.545 9.01 0 8 C0 5.36 0 2.72 0 0 Z M162 307 C175.958623 317.46896725 194.72581716 320.96237348 211.98388672 318.74511719 C223.08225696 317.05776789 233.0559292 314.24323733 243 309 C243 308.34 243 307.68 243 307 C216.27 307 189.54 307 162 307 Z " fill="#80A1A0" transform="translate(107,61)"/>
<path d="M0 0 C27.72 0 55.44 0 84 0 C84 2.64 84 5.28 84 8 C83.37351562 8.08636719 82.74703125 8.17273438 82.1015625 8.26171875 C81.28429687 8.40222656 80.46703125 8.54273437 79.625 8.6875 C78.81289062 8.81511719 78.00078125 8.94273438 77.1640625 9.07421875 C74.85149738 9.80694999 74.85149738 9.80694999 73.88215065 11.9460783 C72.63864239 16.25098571 72.71221877 20.32836094 72.7215271 24.78852844 C72.7157347 25.78102024 72.7099423 26.77351203 72.70397437 27.79607934 C72.68695619 31.12490929 72.68409626 34.45360075 72.68115234 37.7824707 C72.67185544 40.16741781 72.66168712 42.55236166 72.65071106 44.93730164 C72.62620983 50.74326069 72.61080491 56.54919271 72.59939598 62.35519109 C72.58562966 69.11165229 72.56066971 75.86805807 72.53501268 82.62448289 C72.48955529 94.67322089 72.45293613 106.72196887 72.421875 118.77075195 C72.39168514 130.4742203 72.35733287 142.17766424 72.31738281 153.88110352 C72.31492126 154.60264283 72.31245972 155.32418214 72.30992357 156.06758628 C72.29754889 159.68737859 72.28509237 163.30717061 72.27259517 166.92696249 C72.16904315 196.9512745 72.07998195 226.97561539 72 257 C73.32 257.33 74.64 257.66 76 258 C77.5056904 263.80766296 78.21824777 268.9981863 78 275 C78.66 275 79.32 275 80 275 C80.45833333 276.375 80.91666667 277.75 81.375 279.125 C81.78878906 280.3625 81.78878906 280.3625 82.2109375 281.625 C82.81878321 283.45455541 83.41242675 285.28883359 84 287.125 C85.39852197 291.14575068 87.10133247 295.01884658 88.859375 298.89453125 C90.14812824 301.78206798 91 303.79900455 91 307 C60.97 307 30.94 307 0 307 C0 304.69 0 302.38 0 300 C1.670625 299.566875 1.670625 299.566875 3.375 299.125 C7.00291092 298.30758671 7.00291092 298.30758671 9 296 C9.30063329 293.83194467 9.30063329 293.83194467 9.24609566 291.28733635 C9.25007775 290.28710312 9.25405985 289.28686989 9.25816262 288.25632656 C9.25233693 287.14934103 9.24651125 286.0423555 9.24050903 284.90182495 C9.24221788 283.73222013 9.24392673 282.5626153 9.24568737 281.35756791 C9.24842069 278.10117774 9.2421374 274.8449452 9.23213124 271.58857369 C9.2235199 268.08073689 9.22641525 264.57290787 9.22793579 261.06506348 C9.22898612 254.98419311 9.22269416 248.90336555 9.21146011 242.82250595 C9.19522799 234.03053578 9.18999946 225.23858637 9.18748413 216.44660284 C9.18310343 202.18330291 9.16978416 187.92002581 9.15087891 173.65673828 C9.13252981 159.79866653 9.11836856 145.94060097 9.10986328 132.08251953 C9.10933783 131.22876424 9.10881239 130.37500895 9.10827102 129.49538229 C9.105661 125.21247922 9.10313357 120.92957611 9.10064721 116.64667296 C9.07990302 81.09776554 9.04451896 45.54888524 9 10 C4.545 9.01 4.545 9.01 0 8 C0 5.36 0 2.72 0 0 Z " fill="#A17D6B" transform="translate(107,61)"/>
<path d="M0 0 C0 17.16 0 34.32 0 52 C-21.59190903 51.91086931 -21.59190903 51.91086931 -30.77929688 51.83984375 C-37.05395832 51.79144746 -43.32844112 51.74742628 -49.60327148 51.72900391 C-54.66091684 51.71388535 -59.7180956 51.6795257 -64.77553368 51.63169098 C-66.7072361 51.61682748 -68.63900512 51.60895615 -70.57076454 51.60811615 C-73.2720506 51.60575962 -75.97203329 51.57878743 -78.6730957 51.54589844 C-79.87718834 51.55344398 -79.87718834 51.55344398 -81.10560608 51.56114197 C-86.51432108 51.45892112 -86.51432108 51.45892112 -89.02043152 49.09088135 C-90 47 -90 47 -90 45 C-90.61875 44.855625 -91.2375 44.71125 -91.875 44.5625 C-96.06256689 43.45402641 -96.82525839 41.62456935 -99 38 C-99.66 37.67 -100.32 37.34 -101 37 C-101 36.34 -101 35.68 -101 35 C-101.99 34.67 -102.98 34.34 -104 34 C-107.76035765 30.94470941 -109.36520201 27.4448832 -111 23 C-111.26941406 22.34128906 -111.53882813 21.68257813 -111.81640625 21.00390625 C-113.56874029 16.39027314 -114.25650464 12.12437396 -114.5859375 7.1953125 C-114.66634277 6.03273926 -114.74674805 4.87016602 -114.82958984 3.67236328 C-114.8858252 2.7904834 -114.94206055 1.90860352 -115 1 C-100.15351692 0.86956304 -85.3070334 0.73917591 -70.46054935 0.60884857 C-63.56753074 0.54833821 -56.67451227 0.48781136 -49.78149414 0.42724609 C-43.13553845 0.36885168 -36.48958236 0.31050269 -29.84362602 0.25218201 C-27.3017723 0.22986877 -24.75991871 0.20754004 -22.21806526 0.18519592 C-18.67150024 0.15402249 -15.12493475 0.12290301 -11.57836914 0.09179688 C-9.98478577 0.07777077 -9.98478577 0.07777077 -8.35900879 0.0634613 C-7.39842056 0.05504715 -6.43783234 0.046633 -5.44813538 0.03796387 C-4.60838197 0.03058952 -3.76862856 0.02321518 -2.90342808 0.01561737 C-1.93563729 0.00767678 -0.96782336 0 0 0 Z " fill="#A07C6B" transform="translate(352,317)"/>
<path d="M0 0 C2.475 0.495 2.475 0.495 5 1 C5 95.05 5 189.1 5 286 C4.67 286 4.34 286 4 286 C3.67 192.28 3.34 98.56 3 2 C2.01 1.67 1.02 1.34 0 1 C0 0.67 0 0.34 0 0 Z " fill="#FECCCC" transform="translate(113,69)"/>
<path d="M0 0 C16.5 0 33 0 50 0 C50 31.35 50 62.7 50 95 C47.03 96.485 47.03 96.485 44 98 C43.67 97.01 43.34 96.02 43 95 C43.99 94.67 44.98 94.34 46 94 C46.33 93.34 46.66 92.68 47 92 C47.66 92.33 48.32 92.66 49 93 C49 62.64 49 32.28 49 1 C33.16 1 17.32 1 1 1 C1 5.62 1 10.24 1 15 C-36.62 15 -74.24 15 -113 15 C-113 14.67 -113 14.34 -113 14 C-75.71 14 -38.42 14 0 14 C0 9.38 0 4.76 0 0 Z " fill="#C1C8C4" transform="translate(350,303)"/>
<path d="M0 0 C33.33 0 66.66 0 101 0 C101 0.33 101 0.66 101 1 C52.985 1.495 52.985 1.495 4 2 C2.92510396 6.29958415 3.25063651 8.20000283 4.25 12.4375 C4.50265625 13.54996094 4.7553125 14.66242188 5.015625 15.80859375 C5.97985303 18.93468224 7.24762664 21.25861592 9 24 C9.33333333 25.33333333 9.66666667 26.66666667 10 28 C10.66 28.33 11.32 28.66 12 29 C11.67 30.32 11.34 31.64 11 33 C7.31993134 29.82752702 5.64461287 26.47156903 4 22 C3.73058594 21.34128906 3.46117187 20.68257813 3.18359375 20.00390625 C0.52010206 12.9913315 0.62353333 8.10593326 0 0 Z " fill="#9B7F71" transform="translate(237,318)"/>
<path d="M0 0 C23.76 0 47.52 0 72 0 C72 2.64 72 5.28 72 8 C67.66666667 8 63.33333333 8 59 8 C58.505 6.515 58.505 6.515 58 5 C58.66 4.67 59.32 4.34 60 4 C60 3.34 60 2.68 60 2 C30.3 1.505 30.3 1.505 0 1 C0 0.67 0 0.34 0 0 Z " fill="#CFBAAE" transform="translate(119,61)"/>
<path d="M0 0 C1.96146913 3.87390153 3.58987596 7.74228628 4.9375 11.875 C6.33678217 15.9905358 8.06426087 19.93712056 9.859375 23.89453125 C11.14812824 26.78206798 12 28.79900455 12 32 C-18.03 32 -48.06 32 -79 32 C-79 29.69 -79 27.38 -79 25 C-77.35 25 -75.7 25 -74 25 C-75.32 25.33 -76.64 25.66 -78 26 C-78 27.65 -78 29.3 -78 31 C-48.96 31 -19.92 31 10 31 C8.35 27.7 6.7 24.4 5 21 C4.14453125 17.87109375 4.14453125 17.87109375 3.8125 15.4375 C3.50744287 13.01593507 3.50744287 13.01593507 3 11 C2.01 10.505 2.01 10.505 1 10 C0.5859375 7.71484375 0.5859375 7.71484375 0.375 4.9375 C0.26285156 3.55884766 0.26285156 3.55884766 0.1484375 2.15234375 C0.09945312 1.44207031 0.05046875 0.73179687 0 0 Z " fill="#AA9287" transform="translate(186,336)"/>
<path d="M0 0 C0.99 0.33 1.98 0.66 3 1 C3.12375 2.11375 3.2475 3.2275 3.375 4.375 C4.61031639 14.71451222 4.61031639 14.71451222 9 24 C9.33333333 25.33333333 9.66666667 26.66666667 10 28 C10.66 28.33 11.32 28.66 12 29 C11.67 30.32 11.34 31.64 11 33 C7.31993134 29.82752702 5.64461287 26.47156903 4 22 C3.73058594 21.34128906 3.46117187 20.68257813 3.18359375 20.00390625 C0.69921227 13.46290188 0.3114148 6.94777158 0 0 Z " fill="#908A81" transform="translate(237,318)"/>
<path d="M0 0 C1.96146913 3.87390153 3.58987596 7.74228628 4.9375 11.875 C6.34043157 16.00126932 8.08716113 19.95026182 9.859375 23.9296875 C12 28.79658019 12 28.79658019 12 31 C11.34 31 10.68 31 10 31 C6.67935584 25.04311926 4.41941011 19.71254813 3.45703125 12.93359375 C3.30621094 12.29550781 3.15539062 11.65742188 3 11 C2.34 10.67 1.68 10.34 1 10 C0.5859375 7.71484375 0.5859375 7.71484375 0.375 4.9375 C0.30023438 4.01839844 0.22546875 3.09929687 0.1484375 2.15234375 C0.09945312 1.44207031 0.05046875 0.73179687 0 0 Z " fill="#908C84" transform="translate(186,336)"/>
<path d="M0 0 C2.31 0 4.62 0 7 0 C7 2.64 7 5.28 7 8 C3.625 8.125 3.625 8.125 0 8 C-0.66 7.34 -1.32 6.68 -2 6 C-0.02 6 1.96 6 4 6 C4 4.68 4 3.36 4 2 C2.35 2 0.7 2 -1 2 C-0.67 1.34 -0.34 0.68 0 0 Z " fill="#AE988E" transform="translate(184,61)"/>
<path d="M0 0 C2.475 0.495 2.475 0.495 5 1 C5 12.22 5 23.44 5 35 C4.67 35 4.34 35 4 35 C3.67 24.11 3.34 13.22 3 2 C2.01 1.67 1.02 1.34 0 1 C0 0.67 0 0.34 0 0 Z " fill="#EACFC2" transform="translate(113,69)"/>
<path d="M0 0 C3.96 0 7.92 0 12 0 C12 0.33 12 0.66 12 1 C9.36 1 6.72 1 4 1 C3.63019987 5.04622502 3.63019987 5.04622502 6 8 C4.02 8 2.04 8 0 8 C0 5.36 0 2.72 0 0 Z " fill="#B09C91" transform="translate(107,61)"/>
<path d="M0 0 C0.66 0 1.32 0 2 0 C4.1583195 6.07027358 4.20852314 11.59370576 4 18 C3.67 18 3.34 18 3 18 C2.01 12.06 1.02 6.12 0 0 Z " fill="#8B958B" transform="translate(182,318)"/>
<path d="M0 0 C0 3.37465686 -0.81493079 5.53965992 -2 8.6875 C-2.556875 10.17830078 -2.556875 10.17830078 -3.125 11.69921875 C-3.558125 12.83810547 -3.558125 12.83810547 -4 14 C-5.02328619 10.80588526 -4.96256253 8.5784116 -4.25 5.3125 C-4.09015625 4.52488281 -3.9303125 3.73726563 -3.765625 2.92578125 C-3.51296875 2.29027344 -3.2603125 1.65476562 -3 1 C-2.01 0.67 -1.02 0.34 0 0 Z " fill="#A8BBBA" transform="translate(244,272)"/>
<path d="M0 0 C0.53625 0.268125 1.0725 0.53625 1.625 0.8125 C0.965 0.8125 0.305 0.8125 -0.375 0.8125 C-0.375 1.4725 -0.375 2.1325 -0.375 2.8125 C-2.125 4.3203125 -2.125 4.3203125 -4.375 5.9375 C-5.1175 6.47632813 -5.86 7.01515625 -6.625 7.5703125 C-7.2025 7.98023438 -7.78 8.39015625 -8.375 8.8125 C-8.375 4.8125 -8.375 4.8125 -5.625 2 C-2.375 -0.1875 -2.375 -0.1875 0 0 Z " fill="#A1B6B4" transform="translate(381.375,249.1875)"/>
<path d="M0 0 C0 0.66 0 1.32 0 2 C-1.32 2 -2.64 2 -4 2 C-4.33 2.99 -4.66 3.98 -5 5 C-5.66 5 -6.32 5 -7 5 C-7 4.34 -7 3.68 -7 3 C-9.31 3 -11.62 3 -14 3 C-14 2.67 -14 2.34 -14 2 C-12.4176994 1.66179834 -10.83410625 1.32964061 -9.25 1 C-8.36828125 0.814375 -7.4865625 0.62875 -6.578125 0.4375 C-4 0 -4 0 0 0 Z " fill="#ADBEBD" transform="translate(337,376)"/>
<path d="M0 0 C0.66 0 1.32 0 2 0 C2.474375 0.825 2.94875 1.65 3.4375 2.5 C3.953125 3.325 4.46875 4.15 5 5 C5.99 5 6.98 5 8 5 C8 5.66 8 6.32 8 7 C7.01 7.33 6.02 7.66 5 8 C4.34 7.67 3.68 7.34 3 7 C3 6.34 3 5.68 3 5 C2.34 5 1.68 5 1 5 C1 4.34 1 3.68 1 3 C0.01 2.67 -0.98 2.34 -2 2 C-1.34 1.34 -0.68 0.68 0 0 Z " fill="#A7B8B6" transform="translate(364,253)"/>
<path d="M0 0 C1.65 0.33 3.3 0.66 5 1 C4.67 1.99 4.34 2.98 4 4 C2.35 4.33 0.7 4.66 -1 5 C-1.33 4.01 -1.66 3.02 -2 2 C-1.34 2 -0.68 2 0 2 C0 1.34 0 0.68 0 0 Z " fill="#97ADAC" transform="translate(286,234)"/>
<path d="M0 0 C2.5625 2.25 2.5625 2.25 5 5 C4.8125 7.3125 4.8125 7.3125 4 9 C2.5 7.625 2.5 7.625 1 6 C1 5.34 1 4.68 1 4 C0.34 4 -0.32 4 -1 4 C-1.33 3.01 -1.66 2.02 -2 1 C-1.34 0.67 -0.68 0.34 0 0 Z " fill="#ACC0BF" transform="translate(211,382)"/>
<path d="M0 0 C3.78383679 0.92493788 5.56693694 1.39371171 7.875 4.625 C8.431875 5.800625 8.431875 5.800625 9 7 C5.21616321 6.07506212 3.43306306 5.60628829 1.125 2.375 C0.75375 1.59125 0.3825 0.8075 0 0 Z " fill="#8D918A" transform="translate(256,360)"/>
<path d="M0 0 C4.875 2.75 4.875 2.75 6 5 C4.35 5.33 2.7 5.66 1 6 C0.34 4.35 -0.32 2.7 -1 1 C-0.67 0.67 -0.34 0.34 0 0 Z " fill="#9DB3B2" transform="translate(387,213)"/>
<path d="M0 0 C0.33 0.66 0.66 1.32 1 2 C1.66 2.33 2.32 2.66 3 3 C0.29120665 4.35439668 -2.00933268 4.06501451 -5 4 C-5.33 3.34 -5.66 2.68 -6 2 C-4.02 1.34 -2.04 0.68 0 0 Z " fill="#A8BAB8" transform="translate(346,418)"/>
<path d="M0 0 C3.46941546 0.45822468 6.67395049 0.89131683 10 2 C9.67 2.66 9.34 3.32 9 4 C6.36 3.67 3.72 3.34 1 3 C0.67 2.01 0.34 1.02 0 0 Z " fill="#B2C3C1" transform="translate(347,194)"/>
<path d="M0 0 C0.99 0.33 1.98 0.66 3 1 C2.34 1 1.68 1 1 1 C0.71125 1.639375 0.4225 2.27875 0.125 2.9375 C-1 5 -1 5 -3 6 C-3.33 5.01 -3.66 4.02 -4 3 C-2.1875 1.4375 -2.1875 1.4375 0 0 Z " fill="#AABDBB" transform="translate(253,257)"/>
<path d="M0 0 C2.31 0 4.62 0 7 0 C5.68 1.32 4.36 2.64 3 4 C1.68 3.34 0.36 2.68 -1 2 C-0.67 1.34 -0.34 0.68 0 0 Z " fill="#A0B7B5" transform="translate(259,248)"/>
</svg>
