<?xml version="1.0" encoding="UTF-8"?>
<svg version="1.1" xmlns="http://www.w3.org/2000/svg" width="285" height="272">
<path d="M0 0 C0.68690918 0.32629395 1.37381836 0.65258789 2.08154297 0.98876953 C12.3215113 5.93897303 21.27944262 11.7186395 30 19 C31.11955078 19.89138672 31.11955078 19.89138672 32.26171875 20.80078125 C37.99084927 25.51690245 42.47560016 31.14770073 47 37 C48.02287109 38.299375 48.02287109 38.299375 49.06640625 39.625 C68.44340165 65.10707614 75.94641471 97.82929843 72.3125 129.4375 C68.62744551 153.39035419 59.89111945 175.49011929 44 194 C42.96746094 195.23363281 42.96746094 195.23363281 41.9140625 196.4921875 C21.84775459 219.74592338 -8.24656838 234.5847329 -38.85595703 236.87109375 C-73.16544159 238.93388216 -106.0652801 229.96311711 -132.23779297 207.04003906 C-157.4219348 184.02853995 -172.3012358 153.30473995 -174.21875 119.09765625 C-175.31844157 84.32921239 -162.71756904 52.62584819 -139.15014648 27.29443359 C-104.14188075 -9.55317747 -46.53969661 -22.23416944 0 0 Z " fill="#151515" transform="translate(193,29)"/>
<path d="M0 0 C3.05127886 0.51192552 4.81508444 0.86861263 7.375 2.6875 C9 5 9 5 8.77929688 7.75585938 C7.94730278 11.21937366 6.7430024 14.03158312 5.15625 17.21875 C4.28226563 18.97880371 4.28226563 18.97880371 3.390625 20.77441406 C2.76129975 22.01672379 2.13107545 23.25857844 1.5 24.5 C1.18353516 25.12805542 0.86707031 25.75611084 0.54101562 26.40319824 C-5.66608573 38.70487363 -12.50732488 50.11195497 -21 61 C-20.24976563 61.04898438 -19.49953125 61.09796875 -18.7265625 61.1484375 C-13.78340877 61.5095243 -8.9674639 61.9185164 -4.125 63 C2.17871029 64.38022415 8.57089999 64.64797435 15 65 C15 64.34 15 63.68 15 63 C13.515 63.495 13.515 63.495 12 64 C8.04276471 64.36641068 5.73918209 64.41998983 2.25 62.4375 C-2.46388616 57.33078999 -3.59063734 52.33627693 -3.34375 45.546875 C-2.15708779 36.75478684 3.32458475 29.58829947 10.234375 24.28515625 C13.79903335 22.62869778 16.97118877 22.66914006 20.8125 22.8125 C21.85180664 22.83280273 21.85180664 22.83280273 22.91210938 22.85351562 C24.60841265 22.88861155 26.30431136 22.94241057 28 23 C28.33 22.34 28.66 21.68 29 21 C33 21 33 21 34.8125 22.0625 C36 24 36 24 35.9375 27.125 C35.21564571 30.10866442 34.48978993 32.33203112 33.234375 35.06640625 C30.86677679 40.28975623 28.58147606 45.54563465 26.3125 50.8125 C25.90966797 51.73998047 25.50683594 52.66746094 25.09179688 53.62304688 C24.70701172 54.51701172 24.32222656 55.41097656 23.92578125 56.33203125 C23.57942627 57.13358643 23.23307129 57.9351416 22.8762207 58.76098633 C22.0666262 60.82974956 21.48133444 62.83414977 21 65 C21.65226562 64.94199219 22.30453125 64.88398438 22.9765625 64.82421875 C31.00934601 64.40954704 31.00934601 64.40954704 34.625 67.3125 C37 70 37 70 37 73 C39.22983396 73.46754583 41.46186818 73.92532805 43.69921875 74.35546875 C46.00007293 74.80474797 48.29419533 75.28932393 50.58203125 75.80078125 C77.05413103 81.32502539 108.58945516 80.69964444 132 66 C132.47761194 73.04477612 132.47761194 73.04477612 130.6875 76.625 C122.05788291 84.25117325 111.93441036 86.62295427 101 89 C100.09495728 89.26369385 100.09495728 89.26369385 99.17163086 89.53271484 C83.63734378 92.87533716 64.30861622 90.45517935 49.13037109 86.53613281 C46.02635639 85.75497119 42.89453819 85.1114801 39.76098633 84.46044922 C38 84 38 84 37 83 C33.29752487 82.85190099 30.07185463 82.98487271 26.4375 83.75 C21.96102824 84.07556158 20.35287622 82.88503302 17 80 C15.8125 77.8125 15.8125 77.8125 15 76 C7.78258845 73.59419615 0.18126108 75.05724338 -7 77 C-7 74.36 -7 71.72 -7 69 C-10.00401885 68.59946415 -12.98268637 68.26773346 -16 68 C-16.99773437 67.90847656 -17.99546875 67.81695312 -19.0234375 67.72265625 C-24.72403152 67.31494942 -24.72403152 67.31494942 -29.96875 69.1640625 C-31.08633504 70.19202987 -32.17751448 71.24935651 -33.2421875 72.33203125 C-38.29405094 77.12568834 -44.16958249 79.30347816 -51.0625 79.375 C-55.79767103 79.20232897 -55.79767103 79.20232897 -57 78 C-57.625 75.375 -57.625 75.375 -57 72 C-52.21219141 65.4776859 -45.32513431 64.22375649 -37.875 62.6875 C-29.65894282 61.05526624 -29.65894282 61.05526624 -23.6875 55.5 C-22.73758815 53.69409415 -21.84417328 51.85768672 -21 50 C-19.77135827 47.85386606 -18.54217017 45.70804484 -17.3125 43.5625 C-14.74451282 38.67873868 -12.66373658 33.812334 -10.88671875 28.59375 C-10.04339859 26.12694565 -9.11033894 23.72557495 -8.125 21.3125 C-5.26946509 14.26503985 -2.65227194 7.1257706 0 0 Z " fill="#F1F1F1" transform="translate(107,99)"/>
<path d="M0 0 C0.66 1.32 1.32 2.64 2 4 C2.33 3.34 2.66 2.68 3 2 C4.65 2 6.3 2 8 2 C8 2.99 8 3.98 8 5 C6.609375 6.2890625 6.609375 6.2890625 4.75 7.625 C0.47257592 11.07118377 -1.12142672 14.95007182 -3 20 C-3.33 20.66 -3.66 21.32 -4 22 C-4.76475195 28.74486143 -4.08104267 34.43121937 0 40 C3.31371 42.20914 4.3446021 42.22481553 8.1875 42.125 C9.08855469 42.10695312 9.98960938 42.08890625 10.91796875 42.0703125 C11.60503906 42.04710937 12.29210937 42.02390625 13 42 C13 42.66 13 43.32 13 44 C0.62580978 44.76018916 -10.92923586 42.46596431 -23 40 C-21.5409754 37.00147983 -19.92197021 34.43349164 -17.9375 31.75 C-10.92315186 21.85083644 -5.22858242 10.93010193 0 0 Z " fill="#202020" transform="translate(109,120)"/>
<path d="M0 0 C0.66 0.33 1.32 0.66 2 1 C1.35524469 6.87443728 -0.14512983 12.25288925 -1.9375 17.875 C-2.20240234 18.74125 -2.46730469 19.6075 -2.74023438 20.5 C-2.99998047 21.32242188 -3.25972656 22.14484375 -3.52734375 22.9921875 C-3.76187256 23.73839355 -3.99640137 24.48459961 -4.23803711 25.25341797 C-5 27 -5 27 -7 28 C-12.18965517 28.49425287 -12.18965517 28.49425287 -15 28 C-17.8689777 25.1310223 -17.9872681 23.15787558 -18.3125 19.125 C-18.06652923 13.68289663 -17.25743458 9.41864414 -13.5625 5.25 C-12.2940625 4.13625 -12.2940625 4.13625 -11 3 C-10.566875 2.401875 -10.13375 1.80375 -9.6875 1.1875 C-6.70942444 -0.9081828 -3.54815653 -0.22527978 0 0 Z " fill="#181818" transform="translate(128,131)"/>
<path d="M0 0 C-0.99 0 -1.98 0 -3 0 C-3.33 1.32 -3.66 2.64 -4 4 C1.445 3.01 1.445 3.01 7 2 C1.85714286 7.57142857 1.85714286 7.57142857 -2 8 C-2 8.66 -2 9.32 -2 10 C-1.01 10.66 -0.02 11.32 1 12 C-2.73678094 13.72519266 -5.6439232 14.24853628 -9.75 14.1875 C-10.71421875 14.18105469 -11.6784375 14.17460937 -12.671875 14.16796875 C-15 14 -15 14 -16 13 C-16.625 10.375 -16.625 10.375 -16 7 C-11.50575826 2.46884457 -6.57364806 -2.04009767 0 0 Z " fill="#DADADA" transform="translate(66,164)"/>
<path d="M0 0 C0.66 1.32 1.32 2.64 2 4 C2.33 3.34 2.66 2.68 3 2 C4.65 2 6.3 2 8 2 C8 2.99 8 3.98 8 5 C6.57421875 6.39453125 6.57421875 6.39453125 4.6875 7.8125 C1.36066858 10.49955615 -0.37418109 12.98327094 -2 17 C-2.66 15.68 -3.32 14.36 -4 13 C-4.99 13.495 -4.99 13.495 -6 14 C-4.50829734 9.0276578 -2.39542583 4.58154261 0 0 Z " fill="#282828" transform="translate(109,120)"/>
<path d="M0 0 C-12.375 8.25 -12.375 8.25 -16.1875 8.125 C-18.0746875 8.063125 -18.0746875 8.063125 -20 8 C-19.4375 6.1875 -19.4375 6.1875 -18 4 C-12.72947017 1.25932449 -5.81276325 -1.93758775 0 0 Z " fill="#3B3B3B" transform="translate(73,167)"/>
<path d="M0 0 C0 0.99 0 1.98 0 3 C-0.474375 3.45375 -0.94875 3.9075 -1.4375 4.375 C-3.21090479 5.92062482 -3.21090479 5.92062482 -3.4375 8.375 C-4.17696921 11.82585633 -5.5178566 13.5178566 -8 16 C-10.75 16.8125 -10.75 16.8125 -13 17 C-11.3867231 13.2999845 -9.06926004 10.46979051 -6.5 7.375 C-5.7059375 6.41335937 -4.911875 5.45171875 -4.09375 4.4609375 C-2 2 -2 2 0 0 Z " fill="#2B2427" transform="translate(55,55)"/>
<path d="M0 0 C0.66 0 1.32 0 2 0 C2 0.99 2 1.98 2 3 C3.258125 2.835 4.51625 2.67 5.8125 2.5 C12.44520548 1.63013699 12.44520548 1.63013699 16 4 C12.22777911 5.75163456 9.333361 6.22490027 5.1875 6.125 C3.72376953 6.09792969 3.72376953 6.09792969 2.23046875 6.0703125 C1.49441406 6.04710937 0.75835937 6.02390625 0 6 C0 4.02 0 2.04 0 0 Z " fill="#EAEAEA" transform="translate(51,172)"/>
<path d="M0 0 C2.31 0.66 4.62 1.32 7 2 C7 3.65 7 5.3 7 7 C0.25 6.25 0.25 6.25 -2 4 C-1.34 2.68 -0.68 1.36 0 0 Z " fill="#C9C9C9" transform="translate(128,176)"/>
<path d="M0 0 C0.66 0.66 1.32 1.32 2 2 C2.99 1.67 3.98 1.34 5 1 C4.29445932 4.66881155 2.72264494 7.70450534 1 11 C0.34 9.68 -0.32 8.36 -1 7 C-1.99 7.495 -1.99 7.495 -3 8 C-1.125 2.25 -1.125 2.25 0 0 Z " fill="#303030" transform="translate(106,126)"/>
<path d="M0 0 C-0.33 2.31 -0.66 4.62 -1 7 C-3.31 5.02 -5.62 3.04 -8 1 C-7 -1 -7 -1 -5.125 -1.75 C-3 -2 -3 -2 0 0 Z " fill="#2C2528" transform="translate(54,220)"/>
<path d="M0 0 C5.63470383 -0.5497272 8.38987758 1.04952165 13 4 C13 4.99 13 5.98 13 7 C8.1725201 5.58707905 4.2837641 3.57025846 0 1 C0 0.67 0 0.34 0 0 Z " fill="#2B2226" transform="translate(79,248)"/>
<path d="M0 0 C0 0.33 0 0.66 0 1 C-1.670625 1.12375 -1.670625 1.12375 -3.375 1.25 C-5.169375 1.62125 -5.169375 1.62125 -7 2 C-8.18330183 3.86644906 -8.18330183 3.86644906 -9 6 C-11.4375 7.625 -11.4375 7.625 -14 9 C-14.99 9.66 -15.98 10.32 -17 11 C-15.81894487 6.53823618 -13.49195135 4.01850627 -10.01953125 1.16015625 C-6.60510685 -0.8013216 -3.85133271 -0.40540344 0 0 Z " fill="#4C4C4C" transform="translate(128,131)"/>
<path d="M0 0 C0 3 0 3 -1.96875 5.26171875 C-2.8040625 6.06222656 -3.639375 6.86273438 -4.5 7.6875 C-5.3353125 8.49574219 -6.170625 9.30398437 -7.03125 10.13671875 C-7.6809375 10.75160156 -8.330625 11.36648437 -9 12 C-9 8.8525787 -8.399734 7.71198463 -7 5 C-7 4.34 -7 3.68 -7 3 C-6.34 3 -5.68 3 -5 3 C-5 2.34 -5 1.68 -5 1 C-4.34 1.33 -3.68 1.66 -3 2 C-2.01 1.34 -1.02 0.68 0 0 Z " fill="#393138" transform="translate(234,224)"/>
<path d="M0 0 C0.33 0 0.66 0 1 0 C1.26618595 6.95041086 0.6120509 13.23514355 -1 20 C-1.33 20 -1.66 20 -2 20 C-3 13.375 -3 13.375 -3 10 C-2.01 9.67 -1.02 9.34 0 9 C0 6.03 0 3.06 0 0 Z " fill="#261F22" transform="translate(264,151)"/>
<path d="M0 0 C4.94515667 2.62711448 8.87775489 6.26645294 13 10 C12.67 10.66 12.34 11.32 12 12 C11.21625 11.525625 10.4325 11.05125 9.625 10.5625 C8.11051322 9.66101977 6.5764103 8.78820515 5 8 C4 6.33333333 3 4.66666667 2 3 C1.34 2.67 0.68 2.34 0 2 C0 1.34 0 0.68 0 0 Z " fill="#2F2C2E" transform="translate(218,45)"/>
<path d="M0 0 C1.72795352 0.06802967 3.45835365 0.08495645 5.1875 0.0625 C6.08855469 0.05347656 6.98960938 0.04445312 7.91796875 0.03515625 C8.94857422 0.01775391 8.94857422 0.01775391 10 0 C10 0.66 10 1.32 10 2 C-4.78132118 2.18451025 -4.78132118 2.18451025 -11 1 C-11 0.67 -11 0.34 -11 0 C-3.375 -1.125 -3.375 -1.125 0 0 Z " fill="#5B5B5B" transform="translate(112,162)"/>
<path d="M0 0 C0.66 0.66 1.32 1.32 2 2 C0.8905928 5.48670834 -0.26337666 8.77484237 -2 12 C-1.34 12.33 -0.68 12.66 0 13 C-0.66 13 -1.32 13 -2 13 C-2.33 13.66 -2.66 14.32 -3 15 C-4.2288865 11.48538462 -3.75329849 9.31643613 -2.625 5.8125 C-2.34914063 4.93207031 -2.07328125 4.05164063 -1.7890625 3.14453125 C-1 1 -1 1 0 0 Z " fill="#120B0D" transform="translate(29,97)"/>
<path d="M0 0 C0.66 0.33 1.32 0.66 2 1 C0.02 3.97 0.02 3.97 -2 7 C-2.99 6.67 -3.98 6.34 -5 6 C-5 7.65 -5 9.3 -5 11 C-5.33 11 -5.66 11 -6 11 C-6.375 8.3125 -6.375 8.3125 -6 5 C-4.176017 2.93601924 -2.27236161 1.60958947 0 0 Z " fill="#CDCDCD" transform="translate(56,166)"/>
<path d="M0 0 C-2.125 2.125 -2.125 2.125 -5 4 C-8.3125 3.25 -8.3125 3.25 -11 2 C-7.06425135 -0.62383243 -4.54354105 -1.51451368 0 0 Z " fill="#494949" transform="translate(73,167)"/>
<path d="M0 0 C1.32 1.65 2.64 3.3 4 5 C-0.75 7 -0.75 7 -3 7 C-1.125 1.125 -1.125 1.125 0 0 Z " fill="#251F22" transform="translate(35,82)"/>
<path d="M0 0 C0.99 0.33 1.98 0.66 3 1 C3 1.66 3 2.32 3 3 C3.66 3.66 4.32 4.32 5 5 C2.69 5.33 0.38 5.66 -2 6 C-1.34 4.02 -0.68 2.04 0 0 Z " fill="#241E1F" transform="translate(171,257)"/>
<path d="M0 0 C0.66 0 1.32 0 2 0 C1.34 2.31 0.68 4.62 0 7 C-1.32 6.34 -2.64 5.68 -4 5 C-3.34 4.01 -2.68 3.02 -2 2 C-1.34 2 -0.68 2 0 2 C0 1.34 0 0.68 0 0 Z " fill="#1D1D1D" transform="translate(100,113)"/>
<path d="M0 0 C2.99324263 1.0975223 3.84610901 1.67682892 5.25 4.625 C5.4975 5.40875 5.745 6.1925 6 7 C4.35 6.67 2.7 6.34 1 6 C0 3 0 3 0 0 Z " fill="#201C1F" transform="translate(242,72)"/>
<path d="M0 0 C0.66 0.33 1.32 0.66 2 1 C0.3125 4 0.3125 4 -2 7 C-4.75 7.375 -4.75 7.375 -7 7 C-4.66666667 4.66666667 -2.33333333 2.33333333 0 0 Z " fill="#403A3E" transform="translate(72,40)"/>
<path d="M0 0 C-2.30368736 1.06652192 -4.64018187 2.06421005 -7 3 C-9 2 -9 2 -10 0 C-6.33694766 -0.74926071 -3.57644848 -1.2380014 0 0 Z " fill="#231C1E" transform="translate(211,246)"/>
<path d="M0 0 C-0.54723683 3.37462715 -1.0549 5.08235 -3 8 C-3.66 6.02 -4.32 4.04 -5 2 C-2 0 -2 0 0 0 Z " fill="#1E1A1B" transform="translate(37,194)"/>
<path d="M0 0 C0 0.66 0 1.32 0 2 C-2.31 2.33 -4.62 2.66 -7 3 C-7.33 2.34 -7.66 1.68 -8 1 C-4.93251126 -0.86240388 -3.40254489 -1.2151946 0 0 Z " fill="#171717" transform="translate(66,170)"/>
<path d="M0 0 C1.5625 1.8125 1.5625 1.8125 3 4 C2.67 4.99 2.34 5.98 2 7 C1.01 6.67 0.02 6.34 -1 6 C-1 5.34 -1 4.68 -1 4 C-1.66 3.67 -2.32 3.34 -3 3 C-2.01 2.01 -1.02 1.02 0 0 Z " fill="#131313" transform="translate(93,153)"/>
<path d="M0 0 C0 0.99 0 1.98 0 3 C-4.75 2.25 -4.75 2.25 -7 0 C-3.86650268 -1.04449911 -3.01031744 -0.93423645 0 0 Z " fill="#211B1F" transform="translate(237,62)"/>
<path d="M0 0 C2.475 0.99 2.475 0.99 5 2 C2.23776722 4.76223278 -0.20706617 4.57856291 -4 5 C-3.01 4.67 -2.02 4.34 -1 4 C-0.26676204 1.98491642 -0.26676204 1.98491642 0 0 Z " fill="#D1D1D1" transform="translate(62,173)"/>
<path d="M0 0 C0.66 0.99 1.32 1.98 2 3 C0.61410019 6.09162264 -0.49183541 7.49183541 -3 10 C-2.01 6.7 -1.02 3.4 0 0 Z " fill="#424242" transform="translate(131,152)"/>
<path d="M0 0 C2.29633824 3.44450737 2.54016485 5.93812283 3 10 C2.01 9.67 1.02 9.34 0 9 C0 6.03 0 3.06 0 0 Z " fill="#0F090B" transform="translate(257,101)"/>
<path d="M0 0 C1 3 1 3 0.25 5.125 C-1 7 -1 7 -4 8 C-2.87548273 5.0280615 -1.77706209 2.66559313 0 0 Z " fill="#30282A" transform="translate(41,72)"/>
<path d="M0 0 C0 1.65 0 3.3 0 5 C-1.65 5 -3.3 5 -5 5 C-4.6875 3.0625 -4.6875 3.0625 -4 1 C-1 0 -1 0 0 0 Z " fill="#1F1A1D" transform="translate(263,114)"/>
</svg>
